<svg xmlns="http://www.w3.org/2000/svg" width="640" height="420" viewBox="0 0 640 420" role="img" aria-label="Ilustración placeholder del hero: grafo de nodos de un workflow inteligente">
  <defs>
    <linearGradient id="bg" x1="0" y1="0" x2="1" y2="1">
      <stop offset="0" stop-color="#2D123F"/>
      <stop offset="1" stop-color="#6B2FA0"/>
    </linearGradient>
    <linearGradient id="node" x1="0" y1="0" x2="0" y2="1">
      <stop offset="0" stop-color="#FBF8FF"/>
      <stop offset="1" stop-color="#F3E8FF"/>
    </linearGradient>
  </defs>
  <rect width="640" height="420" rx="28" fill="url(#bg)"/>
  <g fill="none" stroke="#9517F2" stroke-width="3" opacity="0.85" stroke-linecap="round">
    <path d="M150 110 C 230 110, 250 210, 330 210"/>
    <path d="M150 300 C 230 300, 250 210, 330 210"/>
    <path d="M410 210 C 470 210, 470 130, 520 130"/>
    <path d="M410 210 C 470 210, 470 290, 520 290"/>
  </g>
  <g font-family="Arial, sans-serif" font-size="14" fill="#2D123F" text-anchor="middle">
    <g>
      <rect x="80" y="84" width="140" height="52" rx="12" fill="url(#node)"/>
      <text x="150" y="115">AI Node</text>
    </g>
    <g>
      <rect x="80" y="274" width="140" height="52" rx="12" fill="url(#node)"/>
      <text x="150" y="305">RAG Node</text>
    </g>
    <g>
      <rect x="330" y="184" width="80" height="52" rx="12" fill="#9517F2"/>
      <text x="370" y="215" fill="#FFFFFF">Compile</text>
    </g>
    <g>
      <rect x="500" y="104" width="120" height="52" rx="12" fill="url(#node)"/>
      <text x="560" y="135">Tool Node</text>
    </g>
    <g>
      <rect x="500" y="264" width="120" height="52" rx="12" fill="url(#node)"/>
      <text x="560" y="289">Human-in-</text>
      <text x="560" y="306">the-Loop</text>
    </g>
  </g>
  <text x="320" y="394" text-anchor="middle" font-family="Arial, sans-serif" font-size="13" fill="#E5D1FF">HERO PLACEHOLDER · reemplazar con captura del producto</text>
</svg>
